<?xml version="1.0" encoding="utf-8"?>
<?xml-stylesheet type="text/xsl" href="rss1.xsl"?>
<rss version="2.0" xmlns:atom="http://www.w3.org/2005/Atom" xmlns:content="http://purl.org/rss/1.0/modules/content/" xmlns:dc="http://purl.org/dc/elements/1.1/" xmlns:media="http://search.yahoo.com/mrss/">
<channel>
 <title>Getty</title>
 <link>http://www.gettyimg.com/</link>
 <atom:link href="http://www.gettyimg.com/" rel="self" type="application/rss+xml" />

 
                <item>
                <title><![CDATA[【HD Live Performances】WEB-RiP - Zara Larsson - Honor The Light Tour Stockholm 2023 SVTPLAY WEBRIP h264 1080p]]></title>
                <link><![CDATA[https://sharemania.us/threads/zara-larsson-honor-the-light-tour-stockholm-2023-svtplay-webrip-h264-1080p.237507/]]></link>
                <description><![CDATA[<article>
<blockquote class="messageText SelectQuoteContainer ugc baseHtml">
<img src="https://i.imgur.com/tr5gV2Z.jpg" class="bbCodeImage LbImage" alt="[​IMG]" data-url="https://i.imgur.com/tr5gV2Z.jpg" style=""><br>
<br>
<div class="bbCodeBlock bbCodeCode">
<div class="type">Code:</div>
<pre>General
Unique ID                      : 195736109412554252284262863443894044634 (0x934167474A3F12867AD6ADEEB82D87DA)
Complete name                  : C:\Users\Zara Larsson - Honor The Light Tour Stockholm 2023 SVTPLAY WEBRIP h264 1080p.mkv
Format                         : Matroska
Format version                 : Version 4
File size                      : 1.34 GiB
Duration                       : 58 min 30 s
Overall bit rate               : 3 282 kb/s
Frame rate                     : 25.000 FPS
Encoded date                   : 2024-02-11 14:33:16 UTC
Writing application            : mkvmerge v82.0 ('I'm The President') 64-bit
Writing library                : libebml v1.4.5 + libmatroska v1.7.1

Video
ID                             : 1
Format                         : AVC
Format/Info                    : Advanced Video Codec
Format profile                 : High@L4.1
Format settings                : CABAC / 4 Ref Frames
Format settings, CABAC         : Yes
Format settings, Reference fra : 4 frames
Codec ID                       : V_MPEG4/ISO/AVC
Duration                       : 58 min 30 s
Bit rate                       : 3 100 kb/s
Width                          : 1 920 pixels
Height                         : 1 080 pixels
Display aspect ratio           : 16:9
Frame rate mode                : Constant
Frame rate                     : 25.000 FPS
Color space                    : YUV
Chroma subsampling             : 4:2:0
Bit depth                      : 8 bits
Scan type                      : Progressive
Bits/(Pixel*Frame)             : 0.060
Stream size                    : 1.26 GiB (94%)
Writing library                : x264 core 163 r3060 5db6aa6
Encoding settings              : cabac=1 / ref=4 / deblock=1:0:0 / analyse=0x3:0x133 / me=umh / subme=9 / psy=1 / psy_rd=1.00:0.00 / mixed_ref=1 / me_range=24 / chroma_me=1 / trellis=2 / 8x8dct=1 / cqm=0 / deadzone=21,11 / fast_pskip=1 / chroma_qp_offset=-4 / threads=34 / lookahead_threads=3 / sliced_threads=0 / nr=0 / decimate=1 / interlaced=0 / bluray_compat=0 / constrained_intra=0 / bframes=6 / b_pyramid=2 / b_adapt=2 / b_bias=0 / direct=3 / weightb=1 / open_gop=0 / weightp=2 / keyint=192 / keyint_min=96 / scenecut=40 / intra_refresh=0 / rc_lookahead=60 / rc=2pass / mbtree=1 / bitrate=3100 / ratetol=1.0 / qcomp=0.60 / qpmin=0 / qpmax=69 / qpstep=4 / cplxblur=20.0 / qblur=0.5 / vbv_maxrate=4700 / vbv_bufsize=6200 / nal_hrd=none / filler=0 / ip_ratio=1.40 / aq=1:1.00
Default                        : Yes
Forced                         : No
Color range                    : Limited
Transfer characteristics       : BT.709
Matrix coefficients            : BT.709

Audio
ID                             : 2
Format                         : AAC LC
Format/Info                    : Advanced Audio Codec Low Complexity
Codec ID                       : A_AAC-2
Duration                       : 58 min 30 s
Bit rate                       : 192 kb/s
Channel(s)                     : 2 channels
Channel layout                 : L R
Sampling rate                  : 48.0 kHz
Frame rate                     : 46.875 FPS (1024 SPF)
Compression mode               : Lossy
Stream size                    : 80.3 MiB (6%)
Language                       : Swedish
Default                        : Yes
Forced                         : No

Text
ID                             : 3
Format                         : UTF-8
Codec ID                       : S_TEXT/UTF8
Codec ID/Info                  : UTF-8 Plain Text
Duration                       : 58 min 5 s
Bit rate                       : 48 b/s
Frame rate                     : 0.170 FPS
Count of elements              : 592
Stream size                    : 20.8 KiB (0%)
Language                       : English
Default                        : Yes
Forced                         : No

</pre>
</div>Ripped by me!<br>
<br>
<div class="bbCodeBlock bbCodeVfcHH HiddenContent">
<div class="attribution type">Hidden Content:</div>
<blockquote>You must reply before you can see the hidden data contained here.</blockquote>
</div>
<div class="messageTextEndMarker">&nbsp;</div>
</blockquote>
</article>]]></description>
                <author><![CDATA[harmonizer54]]></author>
                </item>

                
                <item>
                <title><![CDATA[【Requests】[REQ VID] - Big Girls Don't Cry... They Get Even (1992)]]></title>
                <link><![CDATA[https://sharemania.us/threads/big-girls-dont-cry-they-get-even-1992.237508/]]></link>
                <description><![CDATA[<article>
<blockquote class="messageText SelectQuoteContainer ugc baseHtml">
Looking for the movie "Big Girls Don't Cry... They Get Even" (1992). Also known by the title "Stepkids." <br>
<br>
1080p preferred, but 720p is fine.<br>
<br>
Available from the following streamers:<br>
<br>
<a href="https://www.youtube.com/watch?v=Mu2WeR_9C54" target="_blank" class="externalLink" rel="nofollow">Big Girls Don't Cry... They Get Even on YouTube</a><br>
<a href="https://www.amazon.com/gp/video/detail/amzn1.dv.gti.88af3bb1-2a5c-1cce-ff38-86297a78960a?autoplay=0&amp;ref_=atv_cf_strg_wb" target="_blank" class="externalLink" rel="nofollow">Big Girls Don't Cry... They Get Even on Amazon Prime</a><br>
<a href="https://tv.apple.com/us/movie/big-girls-dont-cry-they-get-even/umc.cmc.1nzhtucsc1bxtvb90ct4irdbp?action=play" target="_blank" class="externalLink" rel="nofollow">Big Girls Don't Cry... They Get Even on Apple TV</a><br>
<br>
Thank you for any help! <img src="styles/default/xenforo/clear.png" class="mceSmilieSprite mceSmilie35" alt=":blush:" title="Blush    :blush:">
<div class="messageTextEndMarker">&nbsp;</div>
</blockquote>
</article>]]></description>
                <author><![CDATA[problematique]]></author>
                </item>

                
                <item>
                <title><![CDATA[【Requests】[REQ AUD] - Britney Spears - Work B**tch/It Should Be Easy Remixes]]></title>
                <link><![CDATA[https://sharemania.us/threads/britney-spears-work-b-tch-it-should-be-easy-remixes.237506/]]></link>
                <description><![CDATA[<article>
<blockquote class="messageText SelectQuoteContainer ugc baseHtml">
Does anyone have the official remixes of these tracks in lossless? Also looking for Tik Tik Boom if possible.<br>
(I don't believe Perfume had any?)
<div class="messageTextEndMarker">&nbsp;</div>
</blockquote>
</article>]]></description>
                <author><![CDATA[stronger6than]]></author>
                </item>

                </channel></rss>